<svg width="526" height="155" viewBox="0 0 526 155" fill="none" xmlns="http://www.w3.org/2000/svg">
<g clip-path="url(#clip0_1_2)">
<path d="M12.32 135V18.2H48.16C59.4667 18.2 68.4267 20.92 75.04 26.36C81.6533 31.6933 84.96 39 84.96 48.28C84.96 53.5067 83.7867 58.04 81.44 61.88C79.0933 65.72 75.8933 68.7067 71.84 70.84C67.8933 72.9733 63.3067 74.04 58.08 74.04V73.4C63.7333 73.2933 68.7467 74.36 73.12 76.6C77.6 78.7333 81.12 81.9333 83.68 86.2C86.3467 90.4667 87.68 95.64 87.68 101.72C87.68 108.44 86.1333 114.307 83.04 119.32C79.9467 124.333 75.5733 128.227 69.92 131C64.3733 133.667 57.7067 135 49.92 135H12.32ZM31.84 118.36H48.64C54.5067 118.36 59.0933 116.813 62.4 113.72C65.8133 110.52 67.52 106.2 67.52 100.76C67.52 95.32 65.8133 90.9467 62.4 87.64C59.0933 84.2267 54.5067 82.52 48.64 82.52H31.84V118.36ZM31.84 66.36H47.84C53.1733 66.36 57.3333 64.9733 60.32 62.2C63.4133 59.32 64.96 55.4267 64.96 50.52C64.96 45.6133 63.4133 41.7733 60.32 39C57.3333 36.2267 53.1733 34.84 47.84 34.84H31.84V66.36ZM110.018 135V18.2H180.098V35.64H129.698V66.04H174.498V83.32H129.698V117.56H180.098V135H110.018ZM205.955 135V18.2H276.035V35.64H225.635V66.04H270.435V83.32H225.635V117.56H276.035V135H205.955ZM299.813 135V18.2H334.533C342.426 18.2 349.253 19.6933 355.013 22.68C360.879 25.6667 365.413 29.88 368.612 35.32C371.813 40.76 373.413 47.2133 373.413 54.68V98.36C373.413 105.72 371.813 112.173 368.612 117.72C365.413 123.16 360.879 127.427 355.013 130.52C349.253 133.507 342.426 135 334.533 135H299.813ZM319.813 116.6H334.533C340.293 116.6 344.879 115 348.293 111.8C351.706 108.493 353.413 104.013 353.413 98.36V54.68C353.413 49.1333 351.706 44.76 348.293 41.56C344.879 38.2533 340.293 36.6 334.533 36.6H319.813V116.6ZM421.67 135V92.6L387.43 18.2H408.39L426.63 58.68C428.017 61.88 429.19 65.0267 430.15 68.12C431.11 71.2133 431.75 73.6133 432.07 75.32C432.497 73.6133 433.137 71.2133 433.99 68.12C434.95 65.0267 436.123 61.88 437.51 58.68L455.27 18.2H476.07L441.83 92.6V135H421.67Z" fill="black"/>
<path d="M504.048 38.624C502.368 38.624 500.896 38.336 499.632 37.76C498.368 37.2 497.312 36.432 496.464 35.456C495.632 34.48 495 33.376 494.568 32.144C494.152 30.912 493.944 29.632 493.944 28.304C493.944 26.912 494.152 25.592 494.568 24.344C495 23.08 495.64 21.968 496.488 21.008C497.336 20.048 498.384 19.296 499.632 18.752C500.896 18.192 502.368 17.912 504.048 17.912C505.728 17.912 507.176 18.152 508.392 18.632C509.608 19.096 510.608 19.744 511.392 20.576C512.176 21.392 512.76 22.32 513.144 23.36C513.528 24.4 513.72 25.496 513.72 26.648C513.72 27.128 513.672 27.664 513.576 28.256C513.496 28.848 513.344 29.448 513.12 30.056C512.912 30.648 512.624 31.2 512.256 31.712C511.888 32.208 511.424 32.616 510.864 32.936C510.304 33.24 509.624 33.392 508.824 33.392C508.008 33.392 507.368 33.208 506.904 32.84C506.456 32.472 506.152 32.04 505.992 31.544C505.784 31.896 505.472 32.216 505.056 32.504C504.64 32.776 504.176 32.992 503.664 33.152C503.168 33.312 502.688 33.392 502.224 33.392C501.328 33.392 500.568 33.152 499.944 32.672C499.336 32.176 498.896 31.512 498.624 30.68C498.352 29.848 498.272 28.936 498.384 27.944C498.496 27.08 498.76 26.248 499.176 25.448C499.592 24.648 500.16 23.992 500.88 23.48C501.616 22.968 502.496 22.712 503.52 22.712C504.16 22.712 504.776 22.904 505.368 23.288C505.976 23.672 506.384 24.224 506.592 24.944L506.832 22.952H508.704L507.864 30.032C507.848 30.464 507.968 30.808 508.224 31.064C508.496 31.304 508.784 31.424 509.088 31.424C509.6 31.424 510.024 31.272 510.36 30.968C510.696 30.664 510.96 30.272 511.152 29.792C511.344 29.312 511.48 28.792 511.56 28.232C511.656 27.672 511.704 27.144 511.704 26.648C511.704 25.336 511.416 24.16 510.84 23.12C510.264 22.064 509.408 21.232 508.272 20.624C507.136 20 505.728 19.688 504.048 19.688C502.352 19.688 500.896 20.072 499.68 20.84C498.48 21.608 497.56 22.64 496.92 23.936C496.28 25.232 495.96 26.672 495.96 28.256C495.96 29.44 496.136 30.552 496.488 31.592C496.856 32.632 497.384 33.544 498.072 34.328C498.776 35.112 499.624 35.728 500.616 36.176C501.624 36.624 502.768 36.848 504.048 36.848C505.328 36.848 506.464 36.664 507.456 36.296C508.464 35.944 509.472 35.448 510.48 34.808L511.392 36.344C510.624 36.792 509.888 37.184 509.184 37.52C508.48 37.872 507.72 38.144 506.904 38.336C506.104 38.528 505.152 38.624 504.048 38.624ZM502.776 31.544C503.448 31.544 504.008 31.384 504.456 31.064C504.92 30.728 505.288 30.296 505.56 29.768C505.832 29.24 506 28.68 506.064 28.088C506.128 27.496 506.088 26.928 505.944 26.384C505.8 25.84 505.536 25.392 505.152 25.04C504.768 24.688 504.248 24.512 503.592 24.512C502.952 24.512 502.4 24.68 501.936 25.016C501.488 25.352 501.128 25.784 500.856 26.312C500.6 26.84 500.432 27.4 500.352 27.992C500.288 28.584 500.32 29.152 500.448 29.696C500.592 30.24 500.848 30.688 501.216 31.04C501.6 31.376 502.12 31.544 502.776 31.544Z" fill="black"/>
</g>
<defs>
<clipPath id="clip0_1_2">
<rect width="526" height="155" fill="white"/>
</clipPath>
</defs>
</svg>
